<svg version="1.1" id="Layer_1" xmlns="http://www.w3.org/2000/svg" xmlns:xlink="http://www.w3.org/1999/xlink" x="0px" y="0px"
	 viewBox="0 0 331.5 49.5" enable-background="new 0 0 331.5 49.5" xml:space="preserve" width="150px">
<g>
	<path fill-rule="evenodd" clip-rule="evenodd" fill="#A4A3B1" d="M14.2,16c0-0.4,0.1-0.6,0.1-0.7c0-0.5-0.3-0.7-0.9-0.7
		c-0.7,0-1.7,0.1-3.1,0.2C8.9,14.9,7.8,15,7.1,15c-0.7,0-1.7-0.1-3.1-0.2c-1.4-0.1-2.4-0.2-3.1-0.2c-0.7,0-1,0.2-1,0.7
		c0,0.1,0,0.4,0.1,0.8c0.5,4,0.7,9.4,0.7,16.1c0,1.7-0.1,4.1-0.4,7.4C0.1,42.9,0,45.4,0,47c0,0.6,0,1,0.1,1.1
		c0.1,0.2,0.5,0.4,1.1,0.5c0.9,0.1,2.9,0.2,6.1,0.2c3.1,0,5.1-0.1,6.1-0.2c0.7-0.1,1-0.4,1-0.9c0-1.7-0.1-4.3-0.4-7.7
		c-0.3-3.4-0.4-6-0.4-7.8C13.5,26,13.7,20.7,14.2,16z M12,1.6C10.7,0.5,9.1,0,7.2,0C5.2,0,3.6,0.5,2.2,1.6C0.7,2.7,0,4.2,0,6
		c0,1.9,0.7,3.4,2.2,4.5c1.3,1,3,1.5,5,1.5c4.7,0,7.1-2,7.1-6C14.2,4.2,13.5,2.8,12,1.6z"/>
	<path fill-rule="evenodd" clip-rule="evenodd" fill="#A4A3B1" d="M40.8,36.5c-1.3,1.2-2.9,1.8-4.9,1.8c-1.9,0-3.5-0.6-4.8-1.9
		c-1.3-1.2-2-2.8-1.9-4.5c-0.1-1.9,0.5-3.4,1.8-4.6c1.3-1.2,2.9-1.8,4.9-1.8c2,0,3.6,0.6,4.9,1.8c1.2,1.2,1.9,2.7,1.9,4.6
		C42.8,33.7,42.1,35.3,40.8,36.5z M56.9,17.8c0.1-0.4,0.1-0.6,0.1-0.7c0-0.2-0.2-0.4-0.6-0.6c-1.1-0.4-3.1-0.8-5.7-1.4
		c-2.8-0.6-4.7-0.9-5.7-0.9c-0.3,0-0.6,0.6-0.9,1.9c-0.2,1.3-0.5,1.9-0.6,1.9c-0.1,0-0.2,0-0.2-0.2c-2.2-2.4-5.1-3.6-8.6-3.6
		c-5.2,0-9.3,1.7-12.3,5.1c-2.9,3.3-4.3,7.6-4.3,12.9c0,4.6,1.4,8.6,4.1,11.9c2.9,3.6,6.6,5.3,11,5.3c2.9,0,5.6-1.3,8.2-3.9
		c0.3-0.3,0.5-0.5,0.7-0.6c0.2,0,0.4,0.7,0.6,2c0.2,1.4,0.5,2,0.9,2c4.3,0,8-0.1,11.3-0.3c0.9-0.1,1.4-0.6,1.4-1.5
		c0-1.8-0.1-4.4-0.4-8c-0.3-3.5-0.4-6.2-0.4-8C55.5,26.5,56,22,56.9,17.8z"/>
	<path fill-rule="evenodd" clip-rule="evenodd" fill="#A4A3B1" d="M118.9,40.7c-0.3-2.9-0.4-5.1-0.4-6.6c0-1.2,0-3,0.1-5.5
		c0.1-2.5,0.1-4.3,0.1-5.5c0-3-1.1-5.2-3.4-6.8c-2-1.4-4.5-2.1-7.7-2.1c-2.1,0-4.3,0.6-6.5,1.8c-2.2,1.2-3.9,2.7-5.2,4.4
		c-0.6-2-1.8-3.6-3.7-4.7c-1.7-1-3.6-1.5-5.7-1.5c-2.1,0-4,0.4-5.8,1.3c-1.2,0.6-2.9,1.8-5,3.4c-0.3,0.2-0.6,0.4-0.8,0.5
		c-0.3,0-0.4-0.9-0.4-2.6c0-1.7-0.4-2.6-1.1-2.6c-0.7,0-1.6,0.2-2.8,0.5c-1.6,0.5-2.5,0.8-2.8,0.8c-0.3,0-1.4,0.2-3.1,0.3
		c-1.4,0.2-2.4,0.4-2.9,0.6c-0.3,0.1-0.5,0.4-0.5,0.8c0,0.1,0,0.4,0,0.6c0.5,4.8,0.7,9,0.7,12.8c0,1.9-0.1,4.6-0.4,8.3
		c-0.3,3.7-0.4,6.5-0.4,8.3c0,0.6,0,0.9,0.2,1c0.1,0.1,0.5,0.2,1.2,0.2c2.1,0.1,4.1,0.2,5.7,0.2c2.6,0,4.5,0,5.7-0.1
		c0.7,0,1.1-0.1,1.2-0.3c0.2-0.1,0.2-0.5,0.2-1c0-2-0.1-5-0.4-9.1c-0.3-4.1-0.4-7.1-0.4-9.1c0-0.9,0.6-1.8,1.9-2.6
		c1.1-0.8,2.2-1.1,3.2-1.1c2.5,0,3.7,1.6,3.7,4.8c0,0.9,0,2.1,0.1,3.8C84,35.8,84,37,84,37.9c0,1.1-0.1,2.7-0.4,4.8
		c-0.3,2.1-0.4,3.7-0.4,4.7c0,0.9,0.4,1.4,1.1,1.4h12c0.8,0,1.2-0.4,1.2-1.1c0-1.1-0.1-2.7-0.4-4.8c-0.3-2.1-0.4-3.7-0.4-4.8
		c0-4.6,0-7.3,0.1-8.3c0.1-1.1,0.7-2.1,1.7-3c1-0.9,2.1-1.3,3.2-1.3c2.4,0,3.7,1.3,3.8,4c0.1,1.7,0.2,4.4,0.2,8.3
		c0,1-0.1,2.6-0.4,4.6c-0.3,2-0.4,3.6-0.4,4.6c0,1,0.4,1.5,1.2,1.6c0.8,0.1,2.8,0.2,6,0.2c3.1,0,5.1,0,5.9-0.1
		c0.8-0.1,1.2-0.5,1.2-1.4C119.2,45.8,119.1,43.6,118.9,40.7z"/>
	<path fill-rule="evenodd" clip-rule="evenodd" fill="#D4103E" d="M143.2,15.8c-1.6-2.6-2.5-3.8-2.9-3.8c-3.5,0-6.8,1.1-9.9,3.2
		c-3.4,2.4-5.1,5.4-5.1,8.9c0,1.9,0.6,3.6,1.7,5.3c0.1,0.1,1.2,1.4,3.3,3.7c1.2,1.3,1.8,2.5,1.8,3.5c0,1.4-1,2.4-3,3l-4.8,0.8
		c-0.3,0-0.4,0.2-0.4,0.4c0,0.6,0.8,2.1,2.3,4.7c1.5,2.6,2.5,3.9,3,3.9c2.1,0,4.4-0.5,6.9-1.6c2.3-1,4.4-2.3,6.1-3.8
		c0.8-0.7,1.5-1.7,2-3.2c0.5-1.3,0.7-2.6,0.7-3.8c0-2-0.6-3.9-1.8-5.7c-0.4-0.7-1.5-1.9-3.3-3.8c-1.2-1.2-1.7-2.3-1.7-3.1
		c0-1.2,0.6-2.1,1.6-2.8c0.9-0.6,2.1-0.9,3.4-0.9c0.6,0,1.3,0.1,1.9,0.2c0.3-0.4,0.5-0.7,0.5-1C145.5,19.9,144.7,18.4,143.2,15.8z"
		/>
	<path fill-rule="evenodd" clip-rule="evenodd" fill="#D4103E" d="M171.4,36.5c-1.3,1.2-2.9,1.8-4.9,1.8c-1.9,0-3.5-0.6-4.8-1.9
		c-1.3-1.2-2-2.8-1.9-4.5c-0.1-1.9,0.5-3.4,1.8-4.6c1.3-1.2,2.9-1.8,4.9-1.8c2,0,3.6,0.6,4.9,1.8c1.2,1.2,1.9,2.7,1.9,4.6
		C173.2,33.7,172.6,35.3,171.4,36.5z M187.4,17.8c0.1-0.4,0.1-0.6,0.1-0.7c0-0.2-0.2-0.4-0.6-0.6c-1.1-0.4-3.1-0.8-5.7-1.4
		c-2.8-0.6-4.7-0.9-5.7-0.9c-0.3,0-0.6,0.6-0.9,1.9c-0.2,1.3-0.5,1.9-0.6,1.9c-0.1,0-0.2,0-0.2-0.2c-2.2-2.4-5.1-3.6-8.6-3.6
		c-5.2,0-9.3,1.7-12.3,5.1c-2.9,3.3-4.3,7.6-4.3,12.9c0,4.6,1.4,8.6,4.1,11.9c2.9,3.6,6.6,5.3,11,5.3c2.9,0,5.6-1.3,8.2-3.9
		c0.3-0.3,0.5-0.5,0.7-0.6c0.2,0,0.4,0.7,0.6,2c0.2,1.4,0.5,2,0.9,2c4.3,0,8.1-0.1,11.4-0.3c0.9-0.1,1.4-0.6,1.4-1.5
		c0-1.8-0.1-4.4-0.4-8c-0.3-3.5-0.4-6.2-0.4-8C186,26.5,186.4,22,187.4,17.8z"/>
	<path fill-rule="evenodd" clip-rule="evenodd" fill="#D4103E" d="M249.4,40.7c-0.3-2.9-0.4-5.1-0.4-6.6c0-1.2,0-3,0.1-5.5
		c0.1-2.5,0.1-4.3,0.1-5.5c0-3-1.1-5.2-3.4-6.8c-2-1.4-4.5-2.1-7.7-2.1c-2.1,0-4.3,0.6-6.5,1.8c-2.2,1.2-4,2.7-5.2,4.4
		c-0.6-2-1.8-3.6-3.7-4.7c-1.7-1-3.6-1.5-5.7-1.5c-2.1,0-4.1,0.4-5.8,1.3c-1.2,0.6-2.9,1.8-5,3.4c-0.3,0.2-0.6,0.4-0.8,0.5
		c-0.3,0-0.4-0.9-0.4-2.6c0-1.7-0.4-2.6-1.1-2.6c-0.7,0-1.6,0.2-2.8,0.5c-1.6,0.5-2.5,0.8-2.8,0.8c-0.3,0-1.4,0.2-3.1,0.3
		c-1.4,0.2-2.4,0.4-2.9,0.6c-0.3,0.1-0.5,0.4-0.5,0.8c0,0.1,0,0.4,0.1,0.6c0.5,4.8,0.7,9,0.7,12.8c0,1.9-0.1,4.6-0.4,8.3
		c-0.3,3.7-0.4,6.5-0.4,8.3c0,0.6,0.1,0.9,0.2,1c0.1,0.1,0.5,0.2,1.2,0.2c2.1,0.1,4,0.2,5.7,0.2c2.6,0,4.5,0,5.7-0.1
		c0.7,0,1.1-0.1,1.2-0.3c0.2-0.1,0.2-0.5,0.2-1c0-2-0.1-5-0.4-9.1c-0.3-4.1-0.4-7.1-0.4-9.1c0-0.9,0.6-1.8,1.9-2.6
		c1.1-0.8,2.2-1.1,3.2-1.1c2.5,0,3.7,1.6,3.7,4.8c0,0.9,0,2.1,0.1,3.8c0.1,1.7,0.1,2.9,0.1,3.8c0,1.1-0.1,2.7-0.4,4.8
		c-0.3,2.1-0.4,3.7-0.4,4.7c0,0.9,0.4,1.4,1.1,1.4h12c0.8,0,1.1-0.4,1.1-1.1c0-1.1-0.1-2.7-0.4-4.8c-0.3-2.1-0.4-3.7-0.4-4.8
		c0-4.6,0-7.3,0.1-8.3c0.1-1.1,0.7-2.1,1.7-3c1-0.9,2.1-1.3,3.2-1.3c2.4,0,3.7,1.3,3.8,4c0.1,1.7,0.1,4.4,0.1,8.3
		c0,1-0.1,2.6-0.4,4.6c-0.3,2-0.4,3.6-0.4,4.6c0,1,0.4,1.5,1.2,1.6c0.8,0.1,2.8,0.2,6,0.2c3.1,0,5.1,0,5.9-0.1s1.2-0.5,1.2-1.4
		C249.8,45.8,249.6,43.6,249.4,40.7z"/>
	<path fill-rule="evenodd" clip-rule="evenodd" fill="#A4A3B1" d="M267.6,35.4c-1.6-1.6-3.6-2.4-5.9-2.4s-4.2,0.8-5.8,2.4
		c-1.6,1.6-2.4,3.5-2.4,5.8c0,2.3,0.8,4.2,2.4,5.8c1.6,1.6,3.5,2.4,5.8,2.4s4.3-0.8,5.9-2.4c1.6-1.6,2.4-3.6,2.4-5.8
		C270,39,269.2,37,267.6,35.4z"/>
	<path fill-rule="evenodd" clip-rule="evenodd" fill="#A4A3B1" d="M296.6,36.5c-1.3,1.2-2.9,1.8-4.9,1.8c-1.9,0-3.5-0.6-4.8-1.9
		c-1.3-1.2-2-2.8-1.9-4.5c-0.1-1.9,0.5-3.4,1.8-4.6c1.3-1.2,2.9-1.8,4.9-1.8c2,0,3.6,0.6,4.9,1.8c1.2,1.2,1.9,2.7,1.9,4.6
		C298.5,33.7,297.9,35.3,296.6,36.5z M312.6,17.8c0.1-0.4,0.1-0.6,0.1-0.7c0-0.2-0.2-0.4-0.6-0.6c-1.2-0.4-3.1-0.8-5.7-1.4
		c-2.8-0.6-4.7-0.9-5.7-0.9c-0.3,0-0.6,0.6-0.9,1.9c-0.2,1.3-0.5,1.9-0.6,1.9c-0.1,0-0.2,0-0.2-0.2c-2.2-2.4-5.1-3.6-8.6-3.6
		c-5.2,0-9.3,1.7-12.3,5.1c-2.9,3.3-4.3,7.6-4.3,12.9c0,4.6,1.4,8.6,4.1,11.9c2.9,3.6,6.6,5.3,11,5.3c2.9,0,5.6-1.3,8.2-3.9
		c0.3-0.3,0.5-0.5,0.7-0.6c0.2,0,0.4,0.7,0.6,2c0.2,1.4,0.5,2,0.9,2c4.3,0,8-0.1,11.4-0.3c0.9-0.1,1.4-0.6,1.4-1.5
		c0-1.8-0.1-4.4-0.4-8c-0.3-3.5-0.4-6.2-0.4-8C311.2,26.5,311.7,22,312.6,17.8z"/>
	<path fill-rule="evenodd" clip-rule="evenodd" fill="#A4A3B1" d="M331.4,16c0-0.4,0.1-0.6,0.1-0.7c0-0.5-0.3-0.7-0.9-0.7
		c-0.7,0-1.7,0.1-3.1,0.2c-1.4,0.1-2.4,0.2-3.1,0.2c-0.7,0-1.7-0.1-3.1-0.2c-1.4-0.1-2.4-0.2-3.1-0.2c-0.7,0-1,0.2-1,0.7
		c0,0.1,0,0.4,0,0.8c0.5,4,0.7,9.4,0.7,16.1c0,1.7-0.1,4.1-0.4,7.4c-0.3,3.3-0.4,5.8-0.4,7.4c0,0.6,0,1,0.1,1.1
		c0.1,0.2,0.5,0.4,1.1,0.5c0.9,0.1,2.9,0.2,6.1,0.2c3.1,0,5.1-0.1,6.1-0.2c0.7-0.1,1-0.4,1-0.9c0-1.7-0.1-4.3-0.4-7.7
		c-0.3-3.4-0.4-6-0.4-7.8C330.8,26,331,20.7,331.4,16z M329.3,1.6c-1.4-1.1-3-1.6-4.9-1.6c-1.9,0-3.6,0.5-4.9,1.6
		c-1.5,1.1-2.2,2.6-2.2,4.4c0,1.9,0.7,3.4,2.2,4.5c1.3,1,3,1.5,5,1.5c4.7,0,7.1-2,7.1-6C331.5,4.2,330.8,2.8,329.3,1.6z"/>
</g>
</svg>